HIERARCHY
ROOT	Hips
{
	OFFSET	0.000	0.000	0.000
	CHANNELS	6	Xposition	Yposition	Zposition	Yrotation	Xrotation	Zrotation
	JOINT	Chest
	{
		OFFSET	0.000	8.484	-3.948
		CHANNELS	3	Yrotation	Xrotation	Zrotation
		JOINT	Chest2
		{
			OFFSET	0.736	24.029	0.515
			CHANNELS	3	Yrotation	Xrotation	Zrotation
			JOINT	LeftCollar
			{
				OFFSET	7.776	16.202	2.430
				CHANNELS	3	Yrotation	Xrotation	Zrotation
				JOINT	LeftShoulder
				{
					OFFSET	13.460	0.000	0.000
					CHANNELS	3	Yrotation	Xrotation	Zrotation
					JOINT	LeftElbow
					{
						OFFSET	26.100	-0.000	0.000
						CHANNELS	3	Yrotation	Xrotation	Zrotation
						JOINT	LeftWrist
						{
							OFFSET	28.740	-0.000	-0.000
							CHANNELS	3	Yrotation	Xrotation	Zrotation
							End Site
							{
								OFFSET	0.006	-10.922	-0.000
							}
						}
					}
				}
			}
			JOINT	Neck
			{
				OFFSET	0.736	24.029	0.515
				CHANNELS	3	Yrotation	Xrotation	Zrotation
				JOINT	Head
				{
					OFFSET	-0.000	10.452	0.000
					CHANNELS	3	Yrotation	Xrotation	Zrotation
					End Site
					{
						OFFSET	-0.012	20.534	-0.005
					}
				}
			}
			JOINT	RightCollar
			{
				OFFSET	-6.304	16.202	2.430
				CHANNELS	3	Yrotation	Xrotation	Zrotation
				JOINT	RightShoulder
				{
					OFFSET	-13.460	-0.000	-0.000
					CHANNELS	3	Yrotation	Xrotation	Zrotation
					JOINT	RightElbow
					{
						OFFSET	-26.100	-0.000	-0.000
						CHANNELS	3	Yrotation	Xrotation	Zrotation
						JOINT	RightWrist
						{
							OFFSET	-28.740	-0.000	-0.000
							CHANNELS	3	Yrotation	Xrotation	Zrotation
							End Site
							{
								OFFSET	0.006	-10.922	0.000
							}
						}
					}
				}
			}
		}
	}
	JOINT	LeftHip
	{
		OFFSET	8.100	-0.000	0.000
		CHANNELS	3	Yrotation	Xrotation	Zrotation
		JOINT	LeftKnee
		{
			OFFSET	-0.000	-43.200	0.000
			CHANNELS	3	Yrotation	Xrotation	Zrotation
			JOINT	LeftAnkle
			{
				OFFSET	0.062	-43.300	0.000
				CHANNELS	3	Yrotation	Xrotation	Zrotation
				End Site
				{
					OFFSET	-0.000	-6.231	13.152
				}
			}
		}
	}
	JOINT	RightHip
	{
		OFFSET	-8.100	0.000	-0.000
		CHANNELS	3	Yrotation	Xrotation	Zrotation
		JOINT	RightKnee
		{
			OFFSET	0.000	-43.200	0.000
			CHANNELS	3	Yrotation	Xrotation	Zrotation
			JOINT	RightAnkle
			{
				OFFSET	-0.063	-43.300	0.000
				CHANNELS	3	Yrotation	Xrotation	Zrotation
				End Site
				{
					OFFSET	-0.000	-6.231	13.152
				}
			}
		}
	}
}
MOTION
Frames:	19
Frame Time:	0.010
-0.000	94.000	0.000	0.000	-0.000	0.000	-0.000	0.000	-0.000	0.000	-0.000	0.000	0.000	-0.000	0.000	0.000	-0.000	0.000	0.000	-0.000	0.000	-0.000	-0.000	90.000	0.000	-0.000	0.000	0.000	-0.000	0.000	0.000	-0.000	-0.000	0.000	-0.000	0.000	0.000	-0.000	0.000	-0.000	0.000	270.000	0.000	0.000	0.000	0.000	-0.000	0.000	0.000	-0.000	0.000	0.000	0.000	0.000	0.000	-0.000	0.000	0.000	-0.000	0.000	
-0.000	94.000	0.000	0.000	-0.000	0.000	-0.000	0.000	-0.000	0.000	-0.000	0.000	0.000	-0.000	0.000	0.000	-0.000	0.000	0.000	-0.000	0.000	-0.000	-0.000	90.000	0.000	-0.000	0.000	0.000	-0.000	0.000	0.000	-0.000	-0.000	0.000	-0.000	0.000	0.000	-0.000	0.000	-0.000	0.000	270.000	0.000	0.000	0.000	0.000	-0.000	0.000	0.000	-0.000	0.000	0.000	0.000	0.000	0.000	-0.000	0.000	0.000	-0.000	0.000	
-0.000	94.000	0.000	0.000	-0.000	0.000	-0.000	0.000	-0.000	0.000	-0.000	0.000	0.000	-0.000	0.000	0.000	-0.000	0.000	0.000	-0.000	0.000	-0.000	-0.000	90.000	0.000	-0.000	0.000	0.000	-0.000	0.000	0.000	-0.000	-0.000	0.000	-0.000	0.000	0.000	-0.000	0.000	-0.000	0.000	270.000	0.000	0.000	0.000	0.000	-0.000	0.000	0.000	-0.000	0.000	0.000	0.000	0.000	0.000	-0.000	0.000	0.000	-0.000	0.000	
-0.000	94.000	0.000	0.000	-0.000	0.000	-0.000	0.000	-0.000	0.000	-0.000	0.000	0.000	-0.000	0.000	0.000	-0.000	0.000	0.000	-0.000	0.000	-0.000	-0.000	90.000	0.000	-0.000	0.000	0.000	-0.000	0.000	0.000	-0.000	-0.000	0.000	-0.000	0.000	0.000	-0.000	0.000	-0.000	0.000	270.000	0.000	0.000	0.000	0.000	-0.000	0.000	0.000	-0.000	0.000	0.000	0.000	0.000	0.000	-0.000	0.000	0.000	-0.000	0.000	
-0.000	94.000	0.000	0.000	-0.000	0.000	-0.000	0.000	-0.000	0.000	-0.000	0.000	0.000	-0.000	0.000	0.000	-0.000	0.000	0.000	-0.000	0.000	-0.000	-0.000	90.000	0.000	-0.000	0.000	0.000	-0.000	0.000	0.000	-0.000	-0.000	0.000	-0.000	0.000	0.000	-0.000	0.000	-0.000	0.000	270.000	0.000	0.000	0.000	0.000	-0.000	0.000	0.000	-0.000	0.000	0.000	0.000	0.000	0.000	-0.000	0.000	0.000	-0.000	0.000	
-0.000	94.000	0.000	0.000	-0.000	0.000	-0.000	0.000	-0.000	0.000	-0.000	0.000	0.000	-0.000	0.000	0.000	-0.000	0.000	0.000	-0.000	0.000	-0.000	-0.000	90.000	0.000	-0.000	0.000	0.000	-0.000	0.000	0.000	-0.000	-0.000	0.000	-0.000	0.000	0.000	-0.000	0.000	-0.000	0.000	270.000	0.000	0.000	0.000	0.000	-0.000	0.000	0.000	-0.000	0.000	0.000	0.000	0.000	0.000	-0.000	0.000	0.000	-0.000	0.000	
-0.000	94.000	0.000	0.000	-0.000	0.000	-0.000	0.000	-0.000	0.000	-0.000	0.000	0.000	-0.000	0.000	0.000	-0.000	0.000	0.000	-0.000	0.000	-0.000	-0.000	90.000	0.000	-0.000	0.000	0.000	-0.000	0.000	0.000	-0.000	-0.000	0.000	-0.000	0.000	0.000	-0.000	0.000	-0.000	0.000	270.000	0.000	0.000	0.000	0.000	-0.000	0.000	0.000	-0.000	0.000	0.000	0.000	0.000	0.000	-0.000	0.000	0.000	-0.000	0.000	
-0.000	94.000	0.000	0.000	-0.000	0.000	-0.000	0.000	-0.000	0.000	-0.000	0.000	0.000	-0.000	0.000	0.000	-0.000	0.000	0.000	-0.000	0.000	-0.000	-0.000	90.000	0.000	-0.000	0.000	0.000	-0.000	0.000	0.000	-0.000	-0.000	0.000	-0.000	0.000	0.000	-0.000	0.000	-0.000	0.000	270.000	0.000	0.000	0.000	0.000	-0.000	0.000	0.000	-0.000	0.000	0.000	0.000	0.000	0.000	-0.000	0.000	0.000	-0.000	0.000	
-0.000	94.000	0.000	0.000	-0.000	0.000	-0.000	0.000	-0.000	0.000	-0.000	0.000	0.000	-0.000	0.000	0.000	-0.000	0.000	0.000	-0.000	0.000	-0.000	-0.000	90.000	0.000	-0.000	0.000	0.000	-0.000	0.000	0.000	-0.000	-0.000	0.000	-0.000	0.000	0.000	-0.000	0.000	-0.000	0.000	270.000	0.000	0.000	0.000	0.000	-0.000	0.000	0.000	-0.000	0.000	0.000	0.000	0.000	0.000	-0.000	0.000	0.000	-0.000	0.000	
-0.000	94.000	0.000	0.000	-0.000	0.000	-0.000	0.000	-0.000	0.000	-0.000	0.000	0.000	-0.000	0.000	0.000	-0.000	0.000	0.000	-0.000	0.000	-0.000	-0.000	90.000	0.000	-0.000	0.000	0.000	-0.000	0.000	0.000	-0.000	-0.000	0.000	-0.000	0.000	0.000	-0.000	0.000	-0.000	0.000	270.000	0.000	0.000	0.000	0.000	-0.000	0.000	0.000	-0.000	0.000	0.000	0.000	0.000	0.000	-0.000	0.000	0.000	-0.000	0.000	
-0.000	94.000	0.000	0.000	-0.000	0.000	-0.000	0.000	-0.000	0.000	-0.000	0.000	0.000	-0.000	0.000	0.000	-0.000	0.000	0.000	-0.000	0.000	-0.000	-0.000	90.000	0.000	-0.000	0.000	0.000	-0.000	0.000	0.000	-0.000	-0.000	0.000	-0.000	0.000	0.000	-0.000	0.000	-0.000	0.000	270.000	0.000	0.000	0.000	0.000	-0.000	0.000	0.000	-0.000	0.000	0.000	0.000	0.000	0.000	-0.000	0.000	0.000	-0.000	0.000	
7.490	88.898	4.192	-87.531	-18.972	39.882	-4.680	6.891	-11.618	-10.896	12.756	-24.228	-36.623	39.377	-23.462	-87.905	-66.936	48.624	-60.337	-4.006	-10.232	28.199	-15.617	88.762	6.583	-1.399	0.609	6.583	-1.399	0.608	29.144	46.405	11.823	74.533	-46.956	-25.662	7.102	34.726	-12.218	-5.901	-14.517	251.248	55.834	-65.984	-46.339	-70.887	-30.237	-106.283	140.497	37.204	-3.448	66.889	-42.114	-80.500	57.781	-13.597	102.302	-125.846	14.857	-12.831	
7.490	88.898	4.193	-87.528	-18.971	39.884	-4.680	6.891	-11.617	-10.895	12.757	-24.226	-36.624	39.375	-23.467	-87.894	-66.937	48.607	-60.335	-4.007	-10.236	28.195	-15.611	88.783	6.589	-1.402	0.611	6.589	-1.402	0.611	29.148	46.407	11.828	74.537	-46.966	-25.676	7.098	34.751	-12.234	-5.870	-14.582	251.253	55.843	-65.981	-46.352	-70.890	-30.236	-106.282	140.496	37.203	-3.449	66.891	-42.112	-80.505	57.781	-13.595	102.301	-125.847	14.860	-12.835	
7.490	88.899	4.195	-87.526	-18.975	39.886	-4.680	6.892	-11.615	-10.896	12.759	-24.222	-36.625	39.374	-23.480	-87.875	-66.935	48.587	-60.329	-4.010	-10.241	28.191	-15.608	88.799	6.605	-1.407	0.615	6.605	-1.407	0.615	29.152	46.418	11.832	74.554	-46.979	-25.697	7.083	34.772	-12.266	-5.831	-14.629	251.271	55.841	-65.975	-46.353	-70.892	-30.237	-106.281	140.499	37.202	-3.450	66.886	-42.108	-80.504	57.783	-13.593	102.300	-125.847	14.864	-12.837	
7.489	88.900	4.196	-87.525	-18.978	39.886	-4.683	6.892	-11.615	-10.900	12.758	-24.221	-36.617	39.377	-23.491	-87.860	-66.936	48.570	-60.325	-4.010	-10.247	28.189	-15.613	88.813	6.618	-1.408	0.615	6.618	-1.408	0.615	29.175	46.421	11.847	74.566	-46.996	-25.718	7.066	34.800	-12.304	-5.784	-14.668	251.306	55.840	-65.969	-46.358	-70.900	-30.235	-106.279	140.495	37.200	-3.455	66.885	-42.105	-80.505	57.783	-13.591	102.298	-125.845	14.874	-12.839	
7.489	88.901	4.196	-87.519	-18.988	39.885	-4.689	6.892	-11.616	-10.914	12.757	-24.224	-36.579	39.390	-23.495	-87.872	-66.929	48.558	-60.318	-4.012	-10.253	28.188	-15.626	88.826	6.636	-1.412	0.616	6.636	-1.412	0.616	29.248	46.409	11.909	74.556	-47.008	-25.748	7.048	34.837	-12.335	-5.737	-14.673	251.385	55.824	-65.962	-46.352	-70.909	-30.236	-106.274	140.489	37.203	-3.465	66.873	-42.094	-80.507	57.775	-13.593	102.299	-125.842	14.883	-12.845	
7.488	88.901	4.196	-87.515	-18.997	39.885	-4.697	6.892	-11.618	-10.930	12.754	-24.230	-36.546	39.399	-23.497	-87.875	-66.938	48.545	-60.284	-4.033	-10.266	28.192	-15.650	88.858	6.655	-1.418	0.620	6.655	-1.418	0.620	29.296	46.403	11.950	74.636	-47.085	-25.874	7.063	34.898	-12.327	-5.743	-14.671	251.487	55.815	-65.954	-46.349	-70.916	-30.235	-106.273	140.473	37.203	-3.488	66.866	-42.078	-80.513	57.765	-13.586	102.296	-125.824	14.903	-12.864	
7.488	88.902	4.197	-87.506	-18.998	39.885	-4.706	6.888	-11.621	-10.947	12.744	-24.237	-36.508	39.410	-23.497	-87.890	-66.954	48.536	-60.277	-4.039	-10.279	28.203	-15.659	88.885	6.676	-1.427	0.624	6.676	-1.427	0.624	29.355	46.396	12.001	74.698	-47.140	-25.990	7.093	34.922	-12.275	-5.758	-14.676	251.556	55.822	-65.946	-46.363	-70.930	-30.232	-106.269	140.458	37.204	-3.505	66.868	-42.047	-80.542	57.732	-13.600	102.301	-125.823	14.919	-12.895	
7.488	88.902	4.197	-87.506	-18.998	39.885	-4.706	6.888	-11.621	-10.947	12.744	-24.237	-36.508	39.410	-23.497	-87.890	-66.954	48.536	-60.277	-4.039	-10.279	28.203	-15.659	88.885	6.676	-1.427	0.624	6.676	-1.427	0.624	29.355	46.396	12.001	74.698	-47.140	-25.990	7.093	34.922	-12.275	-5.758	-14.676	251.556	55.822	-65.946	-46.363	-70.930	-30.232	-106.269	140.458	37.204	-3.505	66.868	-42.047	-80.542	57.732	-13.600	102.301	-125.823	14.919	-12.895	
